# xmcd
#
# Track frame offsets:
#  150
#  10500
#  21330
#  30580
#  42233
#  53930
#  63713
#  76335
#  85788
#  98153
#  112758
#  123060
#  132193
#  141250
#  151528
#  162800
#  173770
#  184505
#  195645
#  208375
#
# Disc length: 2901 seconds
#
# Revision: 0
# Processed by: cddbd v1.5.1PL2 Copyright (c) Steve Scherf et al.
# Submitted via: Collectorz.com_Music_Collector 6.9
#
DISCID=f80b5314
DTITLE=Various Artist - Dance With Me - Volume 03
DYEAR=1994
DGENRE=
TTITLE0=Alden, Craig - Goggle Eyed
TTITLE1=Metland, Curtis - Every Now And Then
TTITLE2=Berry, Dorothy - Watch Out
TTITLE3=Bruce, Ed - See The Big Man Cry
TTITLE4=Flamingos, The - I Know Better
TTITLE5=Dinning, Mark - The Lovin' Touch
TTITLE6=Miracles, The - If You're Mother Only Knew
TTITLE7=Raindrops, The - Rain
TTITLE8=Mc Phatter, Clyde - Sweet And Innocent
TTITLE9=Hawkins, Jennel - Moments
TTITLE10=Dramatics, The - Toy Soldier
TTITLE11=Wildcats, The - Billy's Chacha
TTITLE12=Knight, Sonny - A Fool Like Me
TTITLE13=Turner, Sammy - Raincoat In A River
TTITLE14=Mazza, Maria - Cha-Cha Italiano
TTITLE15=Love mates, The - Boomerang
TTITLE16=Barlow, Dean - Come Back
TTITLE17=Craddock, Crash - I Want That
TTITLE18=Jordan, Jimmy - Tick Tock
TTITLE19=Perry, Mamie - Lament
EXTD=
EXTT0=
EXTT1=
EXTT2=
EXTT3=
EXTT4=
EXTT5=
EXTT6=
EXTT7=
EXTT8=
EXTT9=
EXTT10=
EXTT11=
EXTT12=
EXTT13=
EXTT14=
EXTT15=
EXTT16=
EXTT17=
EXTT18=
EXTT19=
PLAYORDER=
